<svg xmlns="http://www.w3.org/2000/svg" viewBox="0 0 2656.41 1818.35"><defs><style>.cls-1{fill:#8dc63f;}.cls-2{fill:#231f20;}</style></defs><g id="Layer_2" data-name="Layer 2"><g id="Layer_3" data-name="Layer 3"><path class="cls-1" d="M23.6,309.47v-294H96.88v238.7H202l4.61,55.28Zm302.75,3.35c-66.17,0-98.83-28.9-98.83-97.57,0-75,41-112.65,104.69-112.65,57,0,80.81,35.6,80.81,96.31,0,5.45-.83,20.94-2.51,30.15H298.71c2.93,22.62,15.91,33.08,40.2,33.08,21.77,0,45.22-7.11,63.65-14.66L416.8,291C392.93,304,361.52,312.82,326.35,312.82Zm26-125.22c0-22.6-8-34.75-23-34.75-19.27,0-28.9,11.72-30.15,36.43h53.18Zm182.14,23.87c2.51,8.38,3.76,16.34,3.76,21.77A79.31,79.31,0,0,1,542,211.47L576.32,108h64.07L564.6,309.47H500.11L428.5,108h74.12ZM751.34,312.82c-66.16,0-98.82-28.9-98.82-97.57,0-75,41-112.65,104.69-112.65,56.95,0,80.81,35.6,80.81,96.31,0,5.45-.83,20.94-2.51,30.15H723.7c2.94,22.62,15.91,33.08,40.2,33.08,21.78,0,45.23-7.11,63.66-14.66L841.8,291C817.93,304,786.52,312.82,751.34,312.82Zm26-125.22c0-22.6-8-34.75-23-34.75-19.27,0-28.9,11.72-30.16,36.43H777.3ZM1003,169.18c-8.37-.83-14.23-1.68-20.1-1.68-15.49,0-19.68,3.78-34.34,20.52V309.47H877.79V107.2l56.54-3.35c2.93,6.28,5.44,22.62,6.7,34.76,14.65-28.89,24.7-34.34,41.87-34.34a98.05,98.05,0,0,1,27.64,4.19Zm78.71,143.64c-32.24,0-58.62-24.3-58.62-64.07,0-29.74,16.33-49.84,113.9-57.37v-20.1c0-13.41-3.77-17.17-14.24-17.17-21.36,0-45.64,8.79-66.16,22.6l-26.39-41.87c31.41-22.61,64.91-33.92,109.71-33.92,51.09,0,68.26,25.13,68.26,64.91v85.43c0,5,4.19,6.28,22.2,9.63l-11.3,50.67c-7.55.41-14.24.41-20.11.41-38.53,0-52.34-8-59.46-23.45C1123.17,306.54,1106.42,312.82,1081.71,312.82Zm8.38-66.17c0,12.57,7.11,21.35,18.84,21.35a41,41,0,0,0,27.64-10.88V226.56C1093.43,230.31,1090.09,234.92,1090.09,246.65Zm375.18-112.23a214,214,0,0,0-24.71-1.67c-5.85,0-8.37,2.93-10.88,9.63,5.86,8.79,10.47,23.45,10.47,35.59,0,50.26-47.32,71.61-100.51,71.61a39.36,39.36,0,0,0-2.5,12.14c0,5.45,1.66,7.13,8.37,7.13h40.2c43.55,0,65.33,13.81,65.33,53.6,0,42.29-44,83.75-119.77,83.75-60.72,0-93-16.33-93-49,0-18.44,10-33.51,43.13-55.28-2.52-3.35-3.77-7.13-3.77-13.41,0-12.14,3.77-21.35,20.93-44-28.47-5.85-50.66-26.8-50.66-60.71,0-51.09,41.45-80.83,99.24-80.83,20.1,0,35.6,4.19,49.41,10.89,8.39-34.75,17.6-44.38,40.63-44.38a111.2,111.2,0,0,1,33.08,5Zm-89.61,186.77h-69.94c-2.93,4.61-5,10.89-5,15.9,0,10.9,10.47,19.7,40.62,19.7,33.08,0,47.74-13.41,47.74-23.45C1389.06,327.06,1386.12,321.19,1375.66,321.19Zm-30.15-170c-20.52,0-29.32,10.48-29.32,28.9,0,18.84,10,26.8,27.23,26.8,15.9,0,28.89-7.54,28.89-28.48C1372.31,160.8,1363.51,151.17,1345.51,151.17Zm237.41,161.65c-66.17,0-98.82-28.9-98.82-97.57,0-75,41-112.65,104.69-112.65,57,0,80.81,35.6,80.81,96.31,0,5.45-.83,20.94-2.51,30.15H1555.28c2.94,22.62,15.91,33.08,40.2,33.08,21.78,0,45.23-7.11,63.66-14.66L1673.38,291C1649.51,304,1618.1,312.82,1582.92,312.82Zm26-125.22c0-22.6-8-34.75-23-34.75-19.27,0-28.9,11.72-30.16,36.43h53.18ZM1912.45,54.44c-11.73-2.51-20.93-3.77-28.47-3.77-7.12,0-9.22,2.93-9.22,12.57V108h41l-4.18,49.41h-36.86v152h-71.18v-152l-23.45-1.67L1783.9,108h19.68V68.26c0-47.32,16.33-68.26,64.9-68.26,18.43,0,40.63,3.78,53.19,7.54Zm158.72,114.74c-8.4-.83-14.26-1.68-20.12-1.68-15.49,0-19.67,3.78-34.33,20.52V309.47h-70.78V107.2l56.54-3.35c2.93,6.28,5.44,22.62,6.69,34.76,14.66-28.89,24.72-34.34,41.88-34.34a98.05,98.05,0,0,1,27.64,4.19Zm119.32,143.64c-68.26,0-98.84-33.51-98.84-102.18,0-64.91,40.64-108,108-108,68.68,0,100.09,32.24,100.09,100.91C2299.79,266.33,2261.67,312.82,2190.49,312.82Zm5.86-160.38c-19.68,0-31,16.74-31,52.75,0,44,7.11,58.63,28.88,58.63,23.46,0,31.83-17.17,31.83-58.21C2226.08,165.83,2217.28,152.44,2196.35,152.44Zm369.74,23.44c0-10.88-4.61-14.23-13.4-14.23s-21.35,6.7-33.08,16.74V309.47h-68.69V175.88c0-10.88-4.6-14.23-13.39-14.23s-21.77,6.7-33.5,16.74V309.47h-68.67V107.2l61.13-3.35c2.52,6.28,4.61,18,5.87,27.64,20.93-17.59,44-29.73,64.91-29.73,32.24,0,44.38,13.4,49.82,31,16.35-15.07,42.3-31,63.66-31,41.45,0,54.44,18.85,54.44,56.11v151.6h-69.1Z"/><path class="cls-2" d="M322.83,1230.36c-42,25.44-88.44,37.6-138.2,37.6C107.24,1268,73,1231.48,73,1150.77V799.19L0,797l4.42-38.7L73,753.85l9.94-169.16,45.34-4.43v172.5h180.2l-3.31,48.63H128.25v343.85c0,54.16,18.79,74.08,67.44,74.08,36.48,0,75.18-12.18,111.66-32.07Zm405.71,29.86V882.1c0-49.76-16.59-94-82.91-94-49.75,0-126,35.39-191.28,102.83v369.27H399.07V484.08l55.28-4.42V840.08c77.39-74.06,143.73-97.3,207.85-97.3,92.88,0,121.63,46.45,121.63,134.9v382.54Zm348.22,6.63c-116.1,0-206.75-63-206.75-232.17,0-189.07,92.87-291.9,238.81-291.9,109.46,0,165.83,73,165.83,184.66,0,19.88-3.3,51.95-4.41,65.22h-345c-1.1,22.12-1.1,34.28-1.1,43.13,0,129.35,69.65,180.21,169.16,180.21,53.07,0,103.92-21,161.41-59.71L1278,1197.2C1221.6,1241.42,1161.88,1266.85,1076.76,1266.85ZM1219.38,933c0-90.67-42-143.73-118.31-143.73-89.54,0-155.89,53.06-171.38,159.2h289.69Zm280.75,327.26V518.36h423.43l-3.3,46.43H1557.61V850.05h314v47.52h-314v316.22h362.65l3.3,46.43Zm853.46,6.63c-206.75,0-273.11-100.61-273.11-284.14V518.36h56.4v454.4c0,162.54,55.29,245.44,218.9,245.44,169.16,0,227.77-90.65,227.77-257.6V518.36h54.16V963.91C2637.71,1143,2552.59,1266.85,2353.59,1266.85ZM88.91,1685.67c3.31-2.59,7.14-5.55,11.47-9s9-7.09,13.83-10.91,9.46-7.46,13.73-10.87,8.07-6.43,11.33-9l6.59-5.25c11.15-8.64,21.09-16.73,29.73-24.22s16.23-14.63,22.75-21.3a180.07,180.07,0,0,0,16.45-19.34,108.66,108.66,0,0,0,10.88-18.33,85.77,85.77,0,0,0,6-18.2,95.86,95.86,0,0,0,1.9-19.11,92.21,92.21,0,0,0-6.22-33.92,76.27,76.27,0,0,0-18.48-27.57q-12.33-11.77-30.6-18.48t-42.44-6.72a182.83,182.83,0,0,0-31.27,2.54,147.25,147.25,0,0,0-28.24,8,178,178,0,0,0-27.56,14,318.07,318.07,0,0,0-29.21,20.63l21,31.52a299.21,299.21,0,0,1,26.27-17.64,141.71,141.71,0,0,1,21.67-10.49,97.75,97.75,0,0,1,19.29-5.08,129.32,129.32,0,0,1,18.86-1.35,75.67,75.67,0,0,1,24,3.63,53.08,53.08,0,0,1,18.31,10.31,46.86,46.86,0,0,1,11.71,16.14,50.3,50.3,0,0,1,4.15,20.66,62.24,62.24,0,0,1-1.44,13.38,58.12,58.12,0,0,1-4.89,13.53,87.41,87.41,0,0,1-9.36,14.42A197.11,197.11,0,0,1,154.45,1584c-5.83,5.81-12.78,12.16-20.84,18.94s-17.36,14.28-27.94,22.43c-3.93,3.13-8.32,6.55-13.22,10.3L77.2,1647.25c-5.27,4-10.66,8.08-16.07,12.23s-10.74,8.1-15.87,11.93c-12,9-24.26,18.08-36.85,27.49L12.78,1728H243.55l4.39-37.11H82.13C83.31,1690,85.58,1688.23,88.91,1685.67ZM444,1434.13a167,167,0,0,0-42.73,5.22,141.15,141.15,0,0,0-36,14.79,128.39,128.39,0,0,0-28.92,23.2A133.23,133.23,0,0,0,315,1507.75a157.86,157.86,0,0,0-13.15,36.33,182.19,182.19,0,0,0-4.51,41.08q0,34.27,7.84,61.4t24.25,45.91q16.4,18.79,41.74,28.69t60.42,9.88a172,172,0,0,0,43.51-5.18,144.74,144.74,0,0,0,36.25-14.81,122.6,122.6,0,0,0,28.76-23.34,137.47,137.47,0,0,0,21-30.8,153.77,153.77,0,0,0,12.81-37.24,201.75,201.75,0,0,0,4.32-42.51q0-70.56-33.23-106.76T444,1434.13Zm76.34,196.49C516,1645,509.84,1656.91,502,1666.27a73.42,73.42,0,0,1-28.3,20.91,94,94,0,0,1-36.49,6.88q-23.87,0-40.78-7.26a66.8,66.8,0,0,1-27.63-21.45q-10.72-14.16-15.71-35.26t-5-48.71a155,155,0,0,1,6.12-44.83q6.12-20.23,18-34.76a81.84,81.84,0,0,1,29.18-22.5q17.26-8,39.47-8,42.74,0,64.42,26.79t21.67,81.47C526.89,1599.2,524.7,1616.27,520.32,1630.62Zm100.53-149.38,79.72,2.42V1728H750.1V1442.3L622,1447.13Zm414.41-39.58-45.75-3.77q-43.68,56.64-87.52,112.82t-87.68,112.38l7,34.61H987.53v120.65l47.73-2.41V1697.7H1086l2.41-36.43h-53.16Zm-47.73,219.61H860.82q32.17-41,63.58-81.71t63.13-81.67ZM1128,1591.36h296.93l2.4-34H1131.61Zm421.81,94.31c3.34-2.59,7.15-5.55,11.5-9s8.94-7.09,13.8-10.91,9.48-7.46,13.78-10.87,8-6.43,11.31-9,5.45-4.35,6.56-5.25q16.77-13,29.75-24.22c8.67-7.49,16.23-14.63,22.75-21.3a179.09,179.09,0,0,0,16.46-19.34,109.09,109.09,0,0,0,10.85-18.33,83.61,83.61,0,0,0,6-18.2,93,93,0,0,0,1.88-19.11,92,92,0,0,0-6.18-33.92,76.42,76.42,0,0,0-18.49-27.57q-12.32-11.77-30.61-18.48c-12.15-4.49-26.33-6.72-42.43-6.72a182.79,182.79,0,0,0-31.26,2.54,146.65,146.65,0,0,0-28.22,8,175.9,175.9,0,0,0-27.57,14,319.74,319.74,0,0,0-29.26,20.63l21,31.52a297.75,297.75,0,0,1,26.3-17.64,140.31,140.31,0,0,1,21.66-10.49,97.76,97.76,0,0,1,19.25-5.08,130,130,0,0,1,18.87-1.35,75.18,75.18,0,0,1,23.94,3.63,53.09,53.09,0,0,1,18.37,10.31,47.51,47.51,0,0,1,11.71,16.14,50.46,50.46,0,0,1,4.14,20.66,62.88,62.88,0,0,1-1.44,13.38,58.17,58.17,0,0,1-4.9,13.53,87.41,87.41,0,0,1-9.36,14.42,195,195,0,0,1-14.65,16.23c-5.84,5.81-12.8,12.16-20.83,18.94s-17.39,14.28-28,22.43c-3.93,3.13-8.31,6.55-13.23,10.3s-10,7.58-15.22,11.62-10.66,8.08-16.12,12.23-10.7,8.1-15.83,11.93c-12,9-24.28,18.08-36.87,27.49l4.4,29.12h230.77l4.37-37.11H1543C1544.25,1690,1546.5,1688.23,1549.8,1685.67Zm355.09-251.54a166.85,166.85,0,0,0-42.72,5.22,141.6,141.6,0,0,0-36,14.79,128.61,128.61,0,0,0-28.92,23.2,133,133,0,0,0-21.3,30.41,158.29,158.29,0,0,0-13.13,36.33,179.9,179.9,0,0,0-4.55,41.08q0,34.27,7.87,61.4t24.24,45.91c10.94,12.53,24.81,22.11,41.75,28.69s37.07,9.88,60.38,9.88a171.94,171.94,0,0,0,43.53-5.18,144,144,0,0,0,36.23-14.81,122,122,0,0,0,28.8-23.34,136.77,136.77,0,0,0,21-30.8,156.85,156.85,0,0,0,12.83-37.24,203.75,203.75,0,0,0,4.32-42.51q0-70.56-33.24-106.76T1904.89,1434.13Zm76.33,196.49c-4.37,14.37-10.47,26.29-18.34,35.65a73.33,73.33,0,0,1-28.34,20.91,93.55,93.55,0,0,1-36.46,6.88q-23.83,0-40.77-7.26a66.92,66.92,0,0,1-27.65-21.45q-10.7-14.16-15.69-35.26t-5-48.71q0-24.62,6.11-44.83t18-34.76a81.58,81.58,0,0,1,29.13-22.5c11.57-5.35,24.7-8,39.5-8q42.76,0,64.4,26.79t21.69,81.47C1987.8,1599.2,1985.62,1616.27,1981.22,1630.62Zm185.85,55.05c3.32-2.59,7.16-5.55,11.49-9s8.93-7.09,13.83-10.91,9.46-7.46,13.74-10.87,8-6.43,11.3-9,5.48-4.35,6.57-5.25q16.78-13,29.75-24.22c8.68-7.49,16.25-14.63,22.75-21.3a174.49,174.49,0,0,0,16.45-19.34,105.34,105.34,0,0,0,10.87-18.33,85.29,85.29,0,0,0,6.06-18.2,95.13,95.13,0,0,0,1.9-19.11,92.41,92.41,0,0,0-6.21-33.92,76.68,76.68,0,0,0-18.49-27.57q-12.35-11.77-30.59-18.48t-42.45-6.72a182.39,182.39,0,0,0-31.24,2.54,147.64,147.64,0,0,0-28.26,8,179.09,179.09,0,0,0-27.58,14,319.38,319.38,0,0,0-29.2,20.63l21,31.52a293.39,293.39,0,0,1,26.3-17.64,140.17,140.17,0,0,1,21.64-10.49A97.76,97.76,0,0,1,2186,1477a130.2,130.2,0,0,1,18.88-1.35,75.32,75.32,0,0,1,23.94,3.63,53.41,53.41,0,0,1,18.36,10.31,46.93,46.93,0,0,1,11.69,16.14,50,50,0,0,1,4.17,20.66,61.61,61.61,0,0,1-1.43,13.38,59.73,59.73,0,0,1-4.93,13.53,85,85,0,0,1-9.37,14.42,192.72,192.72,0,0,1-14.63,16.23c-5.83,5.81-12.79,12.16-20.86,18.94s-17.34,14.28-27.95,22.43c-3.91,3.13-8.32,6.55-13.19,10.3s-10,7.58-15.29,11.62-10.62,8.08-16.06,12.23-10.7,8.1-15.83,11.93c-12,9-24.29,18.08-36.87,27.49L2091,1728h230.76l4.38-37.11H2160.28C2161.46,1690,2163.74,1688.23,2167.07,1685.67Zm355.08-251.54a167,167,0,0,0-42.74,5.22,141.23,141.23,0,0,0-36,14.79,128.78,128.78,0,0,0-28.91,23.2,133.31,133.31,0,0,0-21.31,30.41,158.3,158.3,0,0,0-13.14,36.33,181,181,0,0,0-4.52,41.08q0,34.27,7.84,61.4t24.26,45.91q16.4,18.79,41.76,28.69t60.4,9.88a172,172,0,0,0,43.5-5.18,145,145,0,0,0,36.26-14.81,121.23,121.23,0,0,0,28.73-23.34,135.87,135.87,0,0,0,21-30.8,155.59,155.59,0,0,0,12.87-37.24,203.78,203.78,0,0,0,4.28-42.51q0-70.56-33.22-106.76T2522.15,1434.13Zm76.34,196.49c-4.36,14.37-10.51,26.29-18.34,35.65a73.44,73.44,0,0,1-28.33,20.91,93.78,93.78,0,0,1-36.47,6.88q-23.86,0-40.77-7.26a66.92,66.92,0,0,1-27.65-21.45q-10.72-14.16-15.7-35.26t-5-48.71q0-24.62,6.11-44.83a99.52,99.52,0,0,1,18-34.76,81.79,81.79,0,0,1,29.14-22.5c11.51-5.35,24.71-8,39.49-8q42.74,0,64.43,26.79t21.68,81.47C2605.08,1599.2,2602.85,1616.27,2598.49,1630.62Z"/></g></g></svg>