<svg xmlns="http://www.w3.org/2000/svg" viewBox="0 0 1275.21 1281.73"><defs><style>.cls-1{fill:#034ea2;}.cls-2{fill:#fff200;}.cls-3{fill:#231f20;}</style></defs><g id="Layer_2" data-name="Layer 2"><g id="EN_EAKR"><rect class="cls-1" width="1275.21" height="850.14"/><polygon class="cls-2" points="637.61 95.22 648.27 127.92 682.66 127.96 654.86 148.2 665.45 180.93 637.61 160.74 609.76 180.93 620.36 148.2 592.55 127.96 626.94 127.92 637.61 95.22"/><polygon class="cls-2" points="779.33 133.31 789.99 166.01 824.39 166.04 796.58 186.29 807.18 219.01 779.33 198.82 751.48 219.01 762.08 186.29 734.27 166.04 768.67 166.01 779.33 133.31"/><polygon class="cls-2" points="882.48 236.68 893.14 269.38 927.54 269.41 899.73 289.66 910.33 322.38 882.48 302.19 854.63 322.38 865.23 289.66 837.42 269.41 871.82 269.38 882.48 236.68"/><polygon class="cls-2" points="920.28 377.89 930.94 410.59 965.34 410.63 937.53 430.88 948.13 463.6 920.28 443.41 892.43 463.6 903.03 430.88 875.22 410.63 909.62 410.59 920.28 377.89"/><polygon class="cls-2" points="882.48 519.1 893.14 551.8 927.54 551.83 899.73 572.08 910.33 604.8 882.48 584.61 854.63 604.8 865.23 572.08 837.42 551.83 871.82 551.8 882.48 519.1"/><polygon class="cls-2" points="779.33 622.46 789.99 655.16 824.39 655.2 796.58 675.45 807.18 708.17 779.33 687.98 751.48 708.17 762.08 675.45 734.27 655.2 768.67 655.16 779.33 622.46"/><polygon class="cls-2" points="637.57 660.57 648.23 693.27 682.63 693.3 654.82 713.55 665.42 746.27 637.57 726.08 609.73 746.27 620.32 713.55 592.51 693.3 626.91 693.27 637.57 660.57"/><polygon class="cls-2" points="495.88 622.46 506.55 655.16 540.94 655.2 513.14 675.45 523.73 708.17 495.88 687.98 468.04 708.17 478.63 675.45 450.83 655.2 485.22 655.16 495.88 622.46"/><polygon class="cls-2" points="392.73 519.1 403.39 551.8 437.79 551.83 409.98 572.08 420.58 604.8 392.73 584.61 364.89 604.8 375.48 572.08 347.68 551.83 382.07 551.8 392.73 519.1"/><polygon class="cls-2" points="354.9 377.89 365.56 410.59 399.96 410.63 372.15 430.88 382.75 463.6 354.9 443.41 327.05 463.6 337.65 430.88 309.84 410.63 344.24 410.59 354.9 377.89"/><polygon class="cls-2" points="392.73 236.68 403.39 269.38 437.79 269.41 409.98 289.66 420.58 322.38 392.73 302.19 364.89 322.38 375.48 289.66 347.68 269.41 382.07 269.38 392.73 236.68"/><polygon class="cls-2" points="495.88 133.31 506.55 166.01 540.94 166.04 513.14 186.29 523.73 219.01 495.88 198.82 468.04 219.01 478.63 186.29 450.83 166.04 485.22 166.01 495.88 133.31"/><polygon class="cls-3" points="52.16 1147.28 17.27 1147.28 17.27 1122.46 49.78 1122.46 49.78 1112.59 17.27 1112.59 17.27 1094.66 52.16 1094.66 52.16 1084.8 6.36 1084.8 6.36 1157.15 52.16 1157.15 52.16 1147.28"/><path class="cls-3" d="M78.87,1158.63a18.87,18.87,0,0,0,8.61-2,37.76,37.76,0,0,0,6.77-4.54v5h10.44V1102.5H94.25v40.1a31.08,31.08,0,0,1-6.39,4.23,15,15,0,0,1-6.66,1.78,11.67,11.67,0,0,1-5.07-.87,6.11,6.11,0,0,1-2.64-2.68,12.82,12.82,0,0,1-1.33-4.62,65.46,65.46,0,0,1-.3-6.92v-31H61.41v35.25a29.75,29.75,0,0,0,1.3,9.37,18,18,0,0,0,3.7,6.52,14.64,14.64,0,0,0,5.65,3.8A19.2,19.2,0,0,0,78.87,1158.63Z"/><path class="cls-3" d="M128,1119a22.34,22.34,0,0,1,6.32-4.31,17.22,17.22,0,0,1,6.88-1.5c1,0,1.92,0,2.65.07a9.24,9.24,0,0,1,2,.32l1.43,0v-10.72l-.63-.1c-.59-.09-1.12-.16-1.56-.21a21.17,21.17,0,0,0-2.17-.07,16.77,16.77,0,0,0-7.4,1.86,38,38,0,0,0-7.47,5.14v-7H117.6v54.65H128Z"/><path class="cls-3" d="M175,1158.63c7.35,0,13.34-2.53,17.8-7.56s6.66-12.14,6.66-21.23-2.24-16.2-6.66-21.22-10.43-7.6-17.8-7.6-13.32,2.56-17.81,7.63-6.73,12.17-6.73,21.19c0,8.77,2.19,15.83,6.53,21S167.39,1158.63,175,1158.63ZM164.79,1115c2.4-3.18,5.73-4.72,10.18-4.72s7.74,1.54,10.11,4.72,3.61,8.21,3.61,14.89-1.22,11.58-3.63,14.81-5.7,4.77-10.09,4.77-7.77-1.58-10.17-4.85-3.64-8.26-3.64-14.73C161.16,1123.16,162.39,1118.15,164.79,1115Z"/><path class="cls-3" d="M249.42,1108.56a17.27,17.27,0,0,0-14.87-7.54,20.45,20.45,0,0,0-9.2,2.09,34,34,0,0,0-6.33,4.08v-4.69H208.58v74.26H219V1155a27.1,27.1,0,0,0,5.28,2.24,25.25,25.25,0,0,0,7.21.94,20.61,20.61,0,0,0,16.65-8.16c4.32-5.38,6.5-12.65,6.5-21.63C254.66,1120.16,252.9,1113.48,249.42,1108.56ZM244,1129.42c0,6.34-1.26,11.2-3.72,14.43s-5.77,4.81-10.2,4.81a23.58,23.58,0,0,1-5.55-.6A30.24,30.24,0,0,1,219,1146v-29.3a30.66,30.66,0,0,1,6.31-4,16.21,16.21,0,0,1,7-1.61c4.1,0,7,1.52,8.77,4.65S244,1123.53,244,1129.42Z"/><path class="cls-3" d="M304.92,1142.83a22.07,22.07,0,0,1-2.68,1.86,34.41,34.41,0,0,1-4,2.09,26.09,26.09,0,0,1-5,1.66,24.55,24.55,0,0,1-5.61.66c-5.24,0-9.4-1.58-12.36-4.67s-4.33-7.33-4.44-12.93h36.82v-5.6a34,34,0,0,0-1.56-11,21.58,21.58,0,0,0-4.54-7.71,18.25,18.25,0,0,0-7-4.67,26,26,0,0,0-9-1.47c-7.52,0-13.69,2.67-18.36,7.94s-7,12.36-7,21.17,2.43,16,7.23,20.87,11.62,7.38,20.26,7.38a31.1,31.1,0,0,0,5.49-.39c1.38-.24,3-.6,4.8-1.1a41.59,41.59,0,0,0,4.26-1.48l3.91-1.54.47-.19v-11h-1.54Zm-32.81-24.57a14.43,14.43,0,0,1,2.88-4.4,13.63,13.63,0,0,1,4.32-2.95,14.42,14.42,0,0,1,5.76-1,15,15,0,0,1,5.78,1,9.35,9.35,0,0,1,3.72,2.82,12.29,12.29,0,0,1,2.07,4.16,23.24,23.24,0,0,1,.79,5.29H270.91A18.54,18.54,0,0,1,272.11,1118.26Z"/><path class="cls-3" d="M350.72,1105.31a18.64,18.64,0,0,0-7.05-3.23,43.74,43.74,0,0,0-9.39-.87,51.57,51.57,0,0,0-9.28.87c-3.32.62-5.59,1.14-7.17,1.59l-.53.16v10.39h1.27l.29-.06a47.29,47.29,0,0,1,8.25-2.64,34,34,0,0,1,7.12-.91,35.42,35.42,0,0,1,5,.35,9.58,9.58,0,0,1,3.9,1.35,6.26,6.26,0,0,1,2.38,2.67,10.78,10.78,0,0,1,.88,4.73v1c-4.6.26-8.69.64-12.48,1.12a38.11,38.11,0,0,0-10.78,2.89,16.73,16.73,0,0,0-7.71,6.47A18.73,18.73,0,0,0,313,1141a19.09,19.09,0,0,0,1.33,7.06,17.26,17.26,0,0,0,3.6,5.66,16.85,16.85,0,0,0,12,4.93,22.87,22.87,0,0,0,6.43-.7,27.2,27.2,0,0,0,4.71-2,21.58,21.58,0,0,0,3.67-2.39l1.72-1.34v4.9h10.4V1120a23.14,23.14,0,0,0-1.49-8.75A13.91,13.91,0,0,0,350.72,1105.31Zm-4.34,24.08V1143a32.18,32.18,0,0,1-6,4.17,15,15,0,0,1-7.3,1.74c-3.09,0-5.45-.72-7-2.14s-2.33-3.52-2.33-6.34a7.72,7.72,0,0,1,2.1-5.77,13.72,13.72,0,0,1,5.59-3.17,42.5,42.5,0,0,1,7.74-1.38Z"/><path class="cls-3" d="M379.75,1117.07a34.8,34.8,0,0,1,6.51-4.32,14.41,14.41,0,0,1,6.54-1.71,11.5,11.5,0,0,1,5,.89,6.35,6.35,0,0,1,2.71,2.65,13.63,13.63,0,0,1,1.28,4.82,60.84,60.84,0,0,1,.36,6.74v31h10.44V1121.9c0-6.69-1.55-11.89-4.61-15.45s-7.4-5.43-12.84-5.43a19.24,19.24,0,0,0-8.57,2,34.61,34.61,0,0,0-6.82,4.51v-5H369.31v54.65h10.44Z"/><path class="cls-3" d="M468.67,1129h9.65l22.24,27.89.23.28H515l-25.58-31.26a23.64,23.64,0,0,0,10.13-7.63,21.88,21.88,0,0,0,4.1-13.49,19.27,19.27,0,0,0-2.27-9.71,18.58,18.58,0,0,0-6.12-6.38,21.28,21.28,0,0,0-8.12-3.23,67.77,67.77,0,0,0-10.32-.65h-19v72.35h10.91Zm22.65-17.28a11.71,11.71,0,0,1-2.83,4.48,10.71,10.71,0,0,1-5.16,2.75,32.66,32.66,0,0,1-7.12.7h-7.54v-25.26h8.58a33.46,33.46,0,0,1,6.46.54,12.11,12.11,0,0,1,4.4,1.78,8.47,8.47,0,0,1,3.12,3.6,12.54,12.54,0,0,1,1,5.18A18.73,18.73,0,0,1,491.32,1111.7Z"/><path class="cls-3" d="M557.37,1155.41l3.91-1.54.47-.19v-11h-1.54l-.21.16a22.07,22.07,0,0,1-2.68,1.86,34.41,34.41,0,0,1-4,2.09,26.09,26.09,0,0,1-5,1.66,24.55,24.55,0,0,1-5.61.66c-5.24,0-9.4-1.58-12.36-4.67s-4.33-7.33-4.45-12.93h36.83v-5.6a34,34,0,0,0-1.56-11,21.58,21.58,0,0,0-4.54-7.71,18.25,18.25,0,0,0-7-4.67,26.07,26.07,0,0,0-9-1.47c-7.52,0-13.69,2.67-18.36,7.94s-7,12.36-7,21.17,2.43,16,7.23,20.87,11.62,7.38,20.26,7.38a31.18,31.18,0,0,0,5.49-.39c1.38-.24,3-.6,4.8-1.1A41.59,41.59,0,0,0,557.37,1155.41Zm-30.18-37.15a14.25,14.25,0,0,1,2.88-4.4,13.63,13.63,0,0,1,4.32-2.95,14.36,14.36,0,0,1,5.76-1,15,15,0,0,1,5.78,1,9.42,9.42,0,0,1,3.72,2.82,12.29,12.29,0,0,1,2.07,4.16,23.24,23.24,0,0,1,.79,5.29H526A18.54,18.54,0,0,1,527.19,1118.26Z"/><path class="cls-3" d="M604,1104.37a29.52,29.52,0,0,0-5.33-2.34,24.25,24.25,0,0,0-7.4-1,21.18,21.18,0,0,0-8.78,1.92,21.41,21.41,0,0,0-7.34,5.46,27.85,27.85,0,0,0-5.14,8.95,35.14,35.14,0,0,0-1.9,12c0,8.58,1.86,15.26,5.54,19.88a18.28,18.28,0,0,0,15,7,23,23,0,0,0,9-1.55,26.76,26.76,0,0,0,6-3.73V1154a24.78,24.78,0,0,1-.6,5.67,11,11,0,0,1-2,4.22,9.84,9.84,0,0,1-4.18,2.82,18.83,18.83,0,0,1-6.75,1.06,25.69,25.69,0,0,1-4.43-.37c-1.62-.31-3.09-.63-4.53-1a39.86,39.86,0,0,1-3.92-1.17c-1.16-.44-2.05-.76-2.64-1l-1.51-.06v10.63l.54.16a58.77,58.77,0,0,0,7.68,1.69,53,53,0,0,0,8.09.63c8.28,0,14.53-2.21,18.59-6.58s6.1-11.19,6.1-20.35V1102.5h-9.76Zm-5.85,6.86a30.18,30.18,0,0,1,5.61,2v28.35a22.08,22.08,0,0,1-6.16,3.5,19.77,19.77,0,0,1-6.9,1.35c-4.2,0-7.15-1.41-9-4.28s-2.86-7.35-2.86-13.06c0-6,1.27-10.69,3.76-13.87a12,12,0,0,1,10.11-4.72A23.44,23.44,0,0,1,598.13,1111.23Z"/><rect class="cls-3" x="627.28" y="1102.5" width="10.44" height="54.65"/><rect class="cls-3" x="626.67" y="1084.31" width="11.67" height="10.78"/><path class="cls-3" d="M696.07,1129.84c0-9-2.24-16.2-6.66-21.22s-10.43-7.6-17.8-7.6-13.32,2.56-17.81,7.63-6.73,12.17-6.73,21.19c0,8.77,2.19,15.83,6.53,21s10.43,7.8,18,7.8c7.35,0,13.34-2.53,17.8-7.56S696.07,1138.93,696.07,1129.84Zm-14.37,14.81c-2.39,3.2-5.7,4.77-10.09,4.77s-7.77-1.58-10.17-4.85-3.64-8.26-3.64-14.73c0-6.68,1.23-11.69,3.63-14.89s5.73-4.72,10.18-4.72,7.74,1.54,10.11,4.72,3.61,8.21,3.61,14.89S684.11,1141.42,681.7,1144.65Z"/><path class="cls-3" d="M733.71,1111.93a6.37,6.37,0,0,1,2.72,2.65,13.87,13.87,0,0,1,1.27,4.82,60.84,60.84,0,0,1,.36,6.74v31H748.5V1121.9c0-6.69-1.54-11.89-4.6-15.45s-7.41-5.43-12.85-5.43a19.2,19.2,0,0,0-8.56,2,34.38,34.38,0,0,0-6.83,4.51v-5H705.22v54.65h10.44v-40.08a34.86,34.86,0,0,1,6.52-4.32,14.37,14.37,0,0,1,6.54-1.71A11.49,11.49,0,0,1,733.71,1111.93Z"/><path class="cls-3" d="M785.34,1156a22,22,0,0,0,3.67-2.39l1.72-1.34v4.9h10.39V1120a23.15,23.15,0,0,0-1.48-8.75,13.93,13.93,0,0,0-4.58-6,18.6,18.6,0,0,0-7-3.23,43.84,43.84,0,0,0-9.4-.87,51.54,51.54,0,0,0-9.27.87c-3.32.62-5.6,1.14-7.17,1.59l-.54.16v10.39h1.28l.29-.06a47,47,0,0,1,8.25-2.64,33.86,33.86,0,0,1,7.11-.91,35.46,35.46,0,0,1,5,.35,9.48,9.48,0,0,1,3.89,1.35,6.28,6.28,0,0,1,2.39,2.67,10.78,10.78,0,0,1,.88,4.73v1c-4.61.26-8.69.64-12.49,1.12a38.2,38.2,0,0,0-10.78,2.89,16.83,16.83,0,0,0-7.71,6.47,20.25,20.25,0,0,0-1.1,16.84,17.24,17.24,0,0,0,3.59,5.66,16.9,16.9,0,0,0,12,4.93,22.82,22.82,0,0,0,6.43-.7A27,27,0,0,0,785.34,1156Zm5.39-26.59V1143a32.18,32.18,0,0,1-6,4.17,15.06,15.06,0,0,1-7.3,1.74c-3.09,0-5.46-.72-7-2.14s-2.33-3.52-2.33-6.34a7.72,7.72,0,0,1,2.1-5.77,13.76,13.76,0,0,1,5.6-3.17,42.34,42.34,0,0,1,7.74-1.38Z"/><rect class="cls-3" x="813.85" y="1081.6" width="10.44" height="75.55"/><path class="cls-3" d="M49,1195.49a33.57,33.57,0,0,0-9.91-4.22,66.53,66.53,0,0,0-15.87-1.51H6.36v72.36H23.43A72.32,72.32,0,0,0,37.74,1261a33.74,33.74,0,0,0,11.18-4.62,31.72,31.72,0,0,0,10.8-12.48,39.37,39.37,0,0,0,4-17.85,40.45,40.45,0,0,0-3.83-18.2A31.53,31.53,0,0,0,49,1195.49Zm-25.31,57H17.27v-53.2h6.44a46.75,46.75,0,0,1,10.5,1,26.47,26.47,0,0,1,7.82,3.19,19.74,19.74,0,0,1,7.75,8.7,32,32,0,0,1,2.65,13.65A33.37,33.37,0,0,1,50,1239.39,20.3,20.3,0,0,1,42.9,1248a23,23,0,0,1-8.34,3.59A52.67,52.67,0,0,1,23.71,1252.54Z"/><path class="cls-3" d="M110.87,1212.13a18.24,18.24,0,0,0-7-4.68,26.37,26.37,0,0,0-9-1.46c-7.51,0-13.69,2.66-18.36,7.94s-7,12.36-7,21.17,2.43,16,7.22,20.87,11.62,7.38,20.26,7.38a31.1,31.1,0,0,0,5.49-.39c1.39-.24,3-.61,4.81-1.1a41.59,41.59,0,0,0,4.26-1.48l3.9-1.54.48-.19v-11h-1.55l-.2.16a22.07,22.07,0,0,1-2.68,1.86,34.41,34.41,0,0,1-4,2.09,26.44,26.44,0,0,1-5,1.66,24.4,24.4,0,0,1-5.6.66c-5.25,0-9.41-1.59-12.36-4.68s-4.33-7.32-4.45-12.93H117v-5.59a34,34,0,0,0-1.56-11A21.35,21.35,0,0,0,110.87,1212.13Zm-29.45,11.1a14.25,14.25,0,0,1,2.88-4.4,13.6,13.6,0,0,1,4.32-3,14.53,14.53,0,0,1,5.76-1,14.93,14.93,0,0,1,5.77,1,9.2,9.2,0,0,1,3.72,2.82,12.31,12.31,0,0,1,2.08,4.16,23.81,23.81,0,0,1,.79,5.29H80.22A18.15,18.15,0,0,1,81.42,1223.23Z"/><polygon class="cls-3" points="144.76 1246.98 130.72 1207.47 119.46 1207.47 139.73 1261.64 139.91 1262.12 148.99 1262.12 169.6 1207.47 158.65 1207.47 144.76 1246.98"/><path class="cls-3" d="M213.65,1212.13a18.27,18.27,0,0,0-7-4.68,26.36,26.36,0,0,0-9-1.46c-7.52,0-13.69,2.66-18.37,7.94s-7,12.36-7,21.17,2.43,16,7.23,20.87,11.62,7.38,20.26,7.38a31.25,31.25,0,0,0,5.49-.39c1.38-.24,2.95-.61,4.8-1.1a41.59,41.59,0,0,0,4.26-1.48l3.9-1.54.48-.19v-11h-1.54l-.21.16a22.07,22.07,0,0,1-2.68,1.86,34.41,34.41,0,0,1-4,2.09,26.09,26.09,0,0,1-5,1.66,24.55,24.55,0,0,1-5.61.66c-5.25,0-9.4-1.59-12.36-4.68s-4.33-7.32-4.45-12.93h36.83v-5.59a34,34,0,0,0-1.56-11A21.49,21.49,0,0,0,213.65,1212.13Zm-29.46,11.1a14.25,14.25,0,0,1,2.88-4.4,13.82,13.82,0,0,1,4.32-3,14.53,14.53,0,0,1,5.76-1,15,15,0,0,1,5.78,1,9.33,9.33,0,0,1,3.72,2.82,12.48,12.48,0,0,1,2.07,4.16,23.81,23.81,0,0,1,.79,5.29H183A18.15,18.15,0,0,1,184.19,1223.23Z"/><rect class="cls-3" x="228.95" y="1186.57" width="10.44" height="75.55"/><path class="cls-3" d="M273.27,1206c-7.33,0-13.32,2.56-17.81,7.63s-6.73,12.17-6.73,21.19c0,8.77,2.19,15.83,6.53,21s10.43,7.81,18,7.81c7.35,0,13.34-2.53,17.8-7.56s6.66-12.14,6.66-21.23-2.24-16.2-6.66-21.22S280.64,1206,273.27,1206Zm10.09,43.62c-2.39,3.21-5.7,4.78-10.09,4.78s-7.78-1.58-10.17-4.85-3.64-8.26-3.64-14.73c0-6.68,1.22-11.69,3.63-14.89s5.73-4.72,10.18-4.72,7.74,1.54,10.11,4.72,3.61,8.21,3.61,14.89S285.77,1246.39,283.36,1249.61Z"/><path class="cls-3" d="M332.85,1206a20.45,20.45,0,0,0-9.2,2.09,34.14,34.14,0,0,0-6.33,4.07v-4.68H306.88v74.26h10.44V1260a27.1,27.1,0,0,0,5.28,2.24,25.2,25.2,0,0,0,7.2.93,20.58,20.58,0,0,0,16.65-8.15c4.32-5.38,6.51-12.65,6.51-21.63,0-8.26-1.76-14.94-5.24-19.86A17.27,17.27,0,0,0,332.85,1206Zm9.39,28.39c0,6.35-1.25,11.21-3.71,14.44s-5.78,4.81-10.2,4.81a23.73,23.73,0,0,1-5.56-.6,30.46,30.46,0,0,1-5.45-2.07v-29.3a30.66,30.66,0,0,1,6.31-4,16.21,16.21,0,0,1,7-1.61c4.1,0,7,1.52,8.77,4.65S342.24,1228.5,342.24,1234.38Z"/><path class="cls-3" d="M428.35,1210.76a13.08,13.08,0,0,0-5.19-3.66,18.22,18.22,0,0,0-6.51-1.11,16.77,16.77,0,0,0-8.76,2.43,35.41,35.41,0,0,0-7.28,6.12,13.66,13.66,0,0,0-5.4-6.31,17,17,0,0,0-8.73-2.24,16,16,0,0,0-8,2,30.73,30.73,0,0,0-5.86,4.35v-4.89H362.22v54.65h10.44V1222a32.18,32.18,0,0,1,5.81-4.29,11.63,11.63,0,0,1,5.72-1.71,10,10,0,0,1,4.41.8,5.57,5.57,0,0,1,2.4,2.49,13.33,13.33,0,0,1,1.11,4.61c.19,2,.28,4.31.28,6.71v31.5h10.44v-35.73c0-1,0-1.93-.07-2.68l-.09-1.58a30.57,30.57,0,0,1,6.12-4.53,12.11,12.11,0,0,1,5.58-1.59,9.91,9.91,0,0,1,4.4.8,5.47,5.47,0,0,1,2.4,2.51,12.86,12.86,0,0,1,1.11,4.59c.19,2,.29,4.31.29,6.71v31.5H433v-35.73a31,31,0,0,0-1.2-9.33A17.71,17.71,0,0,0,428.35,1210.76Z"/><path class="cls-3" d="M483.19,1212.13a18.24,18.24,0,0,0-6.95-4.68,26.37,26.37,0,0,0-9-1.46c-7.52,0-13.69,2.66-18.36,7.94s-7,12.36-7,21.17,2.43,16,7.22,20.87,11.62,7.38,20.26,7.38a31.1,31.1,0,0,0,5.49-.39c1.39-.24,3-.61,4.81-1.1a42.43,42.43,0,0,0,4.26-1.48l3.9-1.54.48-.19v-11h-1.55l-.2.16a22.89,22.89,0,0,1-2.68,1.86,33.84,33.84,0,0,1-4,2.09,26.09,26.09,0,0,1-5,1.66,24.42,24.42,0,0,1-5.61.66c-5.24,0-9.4-1.59-12.36-4.68s-4.32-7.32-4.44-12.93h36.82v-5.59a34,34,0,0,0-1.56-11A21.35,21.35,0,0,0,483.19,1212.13Zm-29.45,11.1a14.4,14.4,0,0,1,2.87-4.4,13.82,13.82,0,0,1,4.32-3,14.62,14.62,0,0,1,5.77-1,14.93,14.93,0,0,1,5.77,1,9.2,9.2,0,0,1,3.72,2.82,12.31,12.31,0,0,1,2.08,4.16,23.81,23.81,0,0,1,.79,5.29H452.54A18.15,18.15,0,0,1,453.74,1223.23Z"/><path class="cls-3" d="M524.14,1206a19.24,19.24,0,0,0-8.57,2,34.61,34.61,0,0,0-6.82,4.51v-5H498.31v54.65h10.44V1222a34.8,34.8,0,0,1,6.51-4.32,14.41,14.41,0,0,1,6.54-1.71,11.5,11.5,0,0,1,5,.89,6.3,6.3,0,0,1,2.71,2.65,13.63,13.63,0,0,1,1.28,4.82,60.79,60.79,0,0,1,.36,6.73v31h10.44v-35.25c0-6.69-1.55-11.89-4.61-15.45S529.58,1206,524.14,1206Z"/><path class="cls-3" d="M565.13,1192.18H554.69v15.29h-6v8.92h6v28.7c0,6.19,1.45,10.79,4.31,13.69s6.89,4.39,12,4.39a32.59,32.59,0,0,0,4.89-.41,45.46,45.46,0,0,0,5.2-1.14l.55-.14v-9.38h-1.26l-.33.08a24.31,24.31,0,0,1-2.86,1,12.85,12.85,0,0,1-4,.62,11.61,11.61,0,0,1-4.59-.76,4.52,4.52,0,0,1-2.25-2.16,9.77,9.77,0,0,1-1-3.82c-.09-1.38-.15-3.4-.15-6.18v-24.51H581.6v-8.92H565.13Z"/><polygon class="cls-3" points="620.82 1262.12 631.73 1262.12 631.73 1228 663.33 1228 663.33 1218.13 631.73 1218.13 631.73 1199.63 664.71 1199.63 664.71 1189.76 620.82 1189.76 620.82 1262.12"/><path class="cls-3" d="M704.85,1247.56a31.12,31.12,0,0,1-6.39,4.24,15,15,0,0,1-6.66,1.78,11.5,11.5,0,0,1-5.07-.88,6.06,6.06,0,0,1-2.64-2.68,12.71,12.71,0,0,1-1.33-4.61,65.54,65.54,0,0,1-.3-6.93v-31H672v35.25a29.75,29.75,0,0,0,1.3,9.37,17.85,17.85,0,0,0,3.71,6.52,14.64,14.64,0,0,0,5.64,3.8,19.43,19.43,0,0,0,6.81,1.19,18.87,18.87,0,0,0,8.61-2,37.76,37.76,0,0,0,6.77-4.54v5H715.3v-54.65H704.85Z"/><path class="cls-3" d="M754,1206a19.2,19.2,0,0,0-8.56,2,34.38,34.38,0,0,0-6.83,4.51v-5H728.21v54.65h10.44V1222a34.86,34.86,0,0,1,6.52-4.32,14.37,14.37,0,0,1,6.54-1.71,11.46,11.46,0,0,1,5,.89,6.27,6.27,0,0,1,2.72,2.65,13.87,13.87,0,0,1,1.27,4.82,58.45,58.45,0,0,1,.36,6.73v31h10.44v-35.25c0-6.69-1.54-11.89-4.6-15.45S759.48,1206,754,1206Z"/><path class="cls-3" d="M816,1186.57v22.52a30,30,0,0,0-5.28-2.19,25.36,25.36,0,0,0-7.15-.91,20.55,20.55,0,0,0-9,2,21.3,21.3,0,0,0-7.27,5.64,29.18,29.18,0,0,0-5.14,9.15,37.24,37.24,0,0,0-1.84,12.36,45.73,45.73,0,0,0,1.44,12.08,27.1,27.1,0,0,0,4.17,8.92,17.56,17.56,0,0,0,6.54,5.52,18.6,18.6,0,0,0,8.34,1.89,22.62,22.62,0,0,0,4.95-.51,21.83,21.83,0,0,0,4.08-1.47,20.87,20.87,0,0,0,3.7-2.16c.7-.53,1.5-1.16,2.42-1.91v4.57h10.44v-75.55Zm0,31.68v29.83a26.28,26.28,0,0,1-6.27,4,16.47,16.47,0,0,1-6.78,1.53c-4.17,0-7.11-1.51-9-4.61s-2.9-7.88-2.9-14c0-6.31,1.27-11.17,3.76-14.46a12,12,0,0,1,10.2-4.88,24.39,24.39,0,0,1,5.57.6A27.6,27.6,0,0,1,816,1218.25Z"/><path class="cls-3" d="M6.36,1026.16V892.55H89.9v15.79H24.13V945H85.41v15.8H24.13v49.62H89.9v15.79Z"/><path class="cls-3" d="M186.18,1026.16H169.31V1015a73.45,73.45,0,0,1-14.81,10.37,34.07,34.07,0,0,1-15.61,3.54,35.22,35.22,0,0,1-12.34-2.15,25.87,25.87,0,0,1-10.09-6.82,32.19,32.19,0,0,1-6.69-11.76A54.65,54.65,0,0,1,107.4,991V925.93h16.87V983a123.22,123.22,0,0,0,.58,13.23,25.8,25.8,0,0,0,2.65,9.2,13,13,0,0,0,5.6,5.66c2.37,1.19,5.76,1.79,10.19,1.79a29.66,29.66,0,0,0,13.19-3.5,60.27,60.27,0,0,0,12.83-8.61V925.93h16.87Z"/><path class="cls-3" d="M263.71,944.06h-.9a18.9,18.9,0,0,0-4-.68c-1.41-.09-3.1-.13-5.07-.13a33.41,33.41,0,0,0-13.55,3A43.46,43.46,0,0,0,227.46,955v71.16H210.59V925.93h16.87v14.9q9.24-8.18,16.1-11.53a30.13,30.13,0,0,1,13.33-3.37c1.73,0,3,.05,3.9.14s1.84.22,2.92.4Z"/><path class="cls-3" d="M358.37,976.09q0,25.3-12.2,39.08t-32.48,13.77q-20.91,0-32.89-14.22t-12-38.63q0-25.12,12.34-39t32.53-13.91q20.28,0,32.48,13.86T358.37,976.09Zm-17.41,0q0-19.47-7.08-28.94t-20.19-9.46q-13.2,0-20.33,9.46t-7.13,28.94q0,18.84,7.13,28.58t20.33,9.74q13,0,20.14-9.56T341,976.09Z"/><path class="cls-3" d="M459.77,973.4q0,25-12,39.88t-30.29,14.85a46.34,46.34,0,0,1-13.19-1.7,52.24,52.24,0,0,1-11.75-5.29v42H375.69V925.93h16.87v10.5A62.38,62.38,0,0,1,406.51,927a37.14,37.14,0,0,1,16.74-3.81q17.22,0,26.87,13.64T459.77,973.4Zm-17.41,1.88q0-17.13-5.47-26.6t-17.77-9.47a31.73,31.73,0,0,0-13.86,3.19,59.91,59.91,0,0,0-12.7,8.21v56.8a59.57,59.57,0,0,0,11.35,4.39,45,45,0,0,0,10.81,1.17q13.11,0,20.37-9.6T442.36,975.28Z"/><path class="cls-3" d="M520.78,1028.49q-24,0-37.19-13.5t-13.23-38.36q0-24.5,12.83-39t33.56-14.49a47,47,0,0,1,16.51,2.69,32.94,32.94,0,0,1,12.56,8.44,38.59,38.59,0,0,1,8.25,14q2.88,8.29,2.88,20.32v9.16H487.49q0,17.49,8.8,26.74t24.31,9.24a47.37,47.37,0,0,0,10.91-1.26,51.15,51.15,0,0,0,9.64-3.23,71.16,71.16,0,0,0,7.72-4,46.07,46.07,0,0,0,5.2-3.64h1v18.4L547.7,1023a81.31,81.31,0,0,1-7.89,2.74q-4.93,1.35-8.93,2.07A59.68,59.68,0,0,1,520.78,1028.49Zm19.74-63.62a46.29,46.29,0,0,0-1.61-11.75,24.27,24.27,0,0,0-4.13-8.35A18.92,18.92,0,0,0,527.2,939a29.27,29.27,0,0,0-11.44-2,28.91,28.91,0,0,0-11.44,2,27.15,27.15,0,0,0-8.57,5.87A28.09,28.09,0,0,0,490,953.7a37.62,37.62,0,0,0-2.52,11.17Z"/><path class="cls-3" d="M630,1015.48q-2.07,1.53-5.52,4.26a38.9,38.9,0,0,1-6.69,4.36,50.61,50.61,0,0,1-8.66,3.59,42.84,42.84,0,0,1-11.71,1.25,30.31,30.31,0,0,1-21.53-8.88,30.54,30.54,0,0,1-6.46-10.19A34,34,0,0,1,567,997.09q0-10.41,4.39-17.72t13.91-11.62a68.54,68.54,0,0,1,19.92-5.34q11.49-1.49,24.77-2.2V957a21.64,21.64,0,0,0-1.8-9.56,13.37,13.37,0,0,0-5-5.61,19.9,19.9,0,0,0-7.9-2.73,67,67,0,0,0-9.6-.68,65.08,65.08,0,0,0-13.73,1.75,92.75,92.75,0,0,0-15.79,5.07h-1V928.08q4.67-1.33,13.37-3a94.88,94.88,0,0,1,17.23-1.61,80.27,80.27,0,0,1,17.41,1.61A33.48,33.48,0,0,1,635.91,931a25,25,0,0,1,8.16,10.67,42,42,0,0,1,2.7,16v68.55H630Zm0-14V973.67q-6,.54-15.21,1.48a81.73,81.73,0,0,0-14.85,2.65,27,27,0,0,0-11.13,6.32q-4.39,4.26-4.4,11.89,0,8.61,4.85,13t14.18,4.4a30,30,0,0,0,14.44-3.46A62.56,62.56,0,0,0,630,1001.48Z"/><path class="cls-3" d="M749.24,1026.16H732.37V969.09a117.2,117.2,0,0,0-.67-12.87,27.52,27.52,0,0,0-2.56-9.56,13.22,13.22,0,0,0-5.74-5.61q-3.69-1.84-10-1.84a28.71,28.71,0,0,0-13,3.37,67.08,67.08,0,0,0-13.06,8.74v74.84H670.45V925.93h16.87v11.13a66.17,66.17,0,0,1,14.9-10.32,35,35,0,0,1,15.52-3.59q14.81,0,23.15,9.74t8.35,28.22Z"/><path class="cls-3" d="M878.36,1028.94a62,62,0,0,1-20.55-3.09,39.87,39.87,0,0,1-15-9.2A38.74,38.74,0,0,1,833,999.91q-2.88-9.74-2.88-24V892.55h17.77v83.36A87.49,87.49,0,0,0,849,991.48a29.55,29.55,0,0,0,4.57,11.35,22.73,22.73,0,0,0,9.74,8.17,36.44,36.44,0,0,0,15,2.78,37.26,37.26,0,0,0,14.81-2.78,22.47,22.47,0,0,0,10.05-8.17,31.86,31.86,0,0,0,4.53-11.31A81.09,81.09,0,0,0,909,976.36V892.55h17.76v83.36a88.44,88.44,0,0,1-2.82,23.87,37.36,37.36,0,0,1-9.92,16.87,40.73,40.73,0,0,1-14.85,9.24Q890.66,1028.94,878.36,1028.94Z"/><path class="cls-3" d="M1029.65,1026.16h-16.87V969.09a114.67,114.67,0,0,0-.68-12.87,27.54,27.54,0,0,0-2.55-9.56,13.19,13.19,0,0,0-5.75-5.61q-3.67-1.84-10-1.84a28.67,28.67,0,0,0-13,3.37,67.08,67.08,0,0,0-13.06,8.74v74.84H950.86V925.93h16.87v11.13a66.17,66.17,0,0,1,14.9-10.32,35,35,0,0,1,15.52-3.59q14.8,0,23.15,9.74t8.35,28.22Z"/><path class="cls-3" d="M1071.73,909.15h-19.2v-17.5h19.2Zm-1.17,117h-16.87V925.93h16.87Z"/><path class="cls-3" d="M1177.79,976.09q0,25.3-12.2,39.08t-32.49,13.77q-20.89,0-32.88-14.22t-12-38.63q0-25.12,12.34-39t32.52-13.91q20.28,0,32.49,13.86T1177.79,976.09Zm-17.41,0q0-19.47-7.09-28.94t-20.19-9.46q-13.18,0-20.32,9.46t-7.13,28.94q0,18.84,7.13,28.58t20.32,9.74q13,0,20.15-9.56T1160.38,976.09Z"/><path class="cls-3" d="M1273.89,1026.16H1257V969.09a114.77,114.77,0,0,0-.67-12.87,27.3,27.3,0,0,0-2.56-9.56,13.17,13.17,0,0,0-5.74-5.61q-3.67-1.84-10-1.84a28.71,28.71,0,0,0-13,3.37,67,67,0,0,0-13,8.74v74.84h-16.87V925.93H1212v11.13a66.12,66.12,0,0,1,14.89-10.32,35,35,0,0,1,15.53-3.59q14.8,0,23.15,9.74t8.34,28.22Z"/></g></g></svg>