<svg xmlns="http://www.w3.org/2000/svg" viewBox="0 0 105.82 105.82"><defs><style>.cls-1{fill:#fff;}</style></defs><g id="Layer_2" data-name="Layer 2"><g id="Layer_1-2" data-name="Layer 1"><path id="Path_12520" data-name="Path 12520" class="cls-1" d="M76.62,0H29.2A29.23,29.23,0,0,0,0,29.2V76.62a29.23,29.23,0,0,0,29.2,29.2H76.62a29.23,29.23,0,0,0,29.2-29.2V29.2A29.23,29.23,0,0,0,76.62,0ZM96.43,76.62A19.82,19.82,0,0,1,76.62,96.43H29.2A19.82,19.82,0,0,1,9.39,76.62V29.2A19.82,19.82,0,0,1,29.2,9.39H76.62A19.82,19.82,0,0,1,96.43,29.2V76.62Z"/><path id="Path_12521" data-name="Path 12521" class="cls-1" d="M52.91,25.65A27.27,27.27,0,1,0,80.18,52.92h0A27.29,27.29,0,0,0,52.91,25.65Zm0,45.14A17.88,17.88,0,1,1,70.79,52.91,17.89,17.89,0,0,1,52.91,70.79Z"/><path id="Path_12522" data-name="Path 12522" class="cls-1" d="M81.32,17.68a6.9,6.9,0,1,0,4.87,2A6.88,6.88,0,0,0,81.32,17.68Z"/></g></g></svg>