<svg xmlns="http://www.w3.org/2000/svg" viewBox="0 0 578.15 578.15"><defs><style>.cls-1{fill:#fff;}.cls-2{fill:none;}</style></defs><g id="Layer_2" data-name="Layer 2"><g id="Capa_1" data-name="Capa 1"><path class="cls-1" d="M95.16,44.51c-37.54,0-62.09,24.64-62.09,57,0,31.67,23.82,57,60.65,57h.72c38.27,0,62.1-25.34,62.1-57C155.82,69.15,132.71,44.51,95.16,44.51Z"/><path class="cls-1" d="M39.56,203.61H149.32v330H39.56Z"/><path class="cls-1" d="M418.72,195.86c-59.21,0-98.92,55.61-98.92,55.61V203.61H210.05v330H319.8V349.34c0-9.87.71-19.72,3.61-26.78,7.94-19.7,26-40.11,56.32-40.11,39.71,0,55.6,30.27,55.6,74.63V533.64H545.07V344.4C545.07,243,490.92,195.86,418.72,195.86Z"/><rect class="cls-2" width="578.15" height="578.15"/></g></g></svg>