<svg xmlns="http://www.w3.org/2000/svg" viewBox="0 0 578.15 578.15"><defs><style>.cls-1{fill:#fff;}.cls-2{fill:none;}</style></defs><g id="Layer_2" data-name="Layer 2"><g id="Capa_1" data-name="Capa 1"><path class="cls-1" d="M545.07,130.32a218.91,218.91,0,0,1-60.48,16.58,104.39,104.39,0,0,0,46.18-58,209.76,209.76,0,0,1-66.56,25.41,105,105,0,0,0-181.57,71.78A108.47,108.47,0,0,0,285.07,210c-87.26-4.25-164.48-46.08-216.35-109.79A105,105,0,0,0,101,240.5a103.7,103.7,0,0,1-47.43-12.93v1.15a105.46,105.46,0,0,0,84.1,103.14,105,105,0,0,1-27.52,3.45,92.67,92.67,0,0,1-19.87-1.79c13.6,41.57,52.19,72.13,98.08,73.12A210.89,210.89,0,0,1,58.19,451.41,196,196,0,0,1,33.07,450a295.55,295.55,0,0,0,161,47.1c193.15,0,298.75-160,298.75-298.68,0-4.64-.16-9.12-.38-13.57A209.45,209.45,0,0,0,545.07,130.32Z"/><rect class="cls-2" width="578.15" height="578.15"/></g></g></svg>